# Blender v3.0.1 OBJ File: ''
# www.blender.org
mtllib nave.mtl
o 000_Buffer_Layer.006
v 0.002405 0.671173 -0.001597
v -0.002035 0.671173 -0.001597
v -0.001907 0.895358 -0.001597
v 0.000185 1.606593 -0.001597
v 0.002277 0.895358 -0.001597
v -0.260815 0.025998 4.479394
v -0.260815 0.537998 4.007394
v -0.780815 0.025998 3.890394
v -0.518815 0.541998 3.343394
v -0.913815 0.378000 -0.176606
v -0.323815 0.718000 0.108394
v -0.846815 0.202000 0.030394
v -0.260815 1.155000 2.226394
v -0.323815 0.776000 2.585394
v -0.260815 1.054000 3.030394
v 0.262185 0.537998 4.007394
v 0.328185 0.776000 2.585394
v 0.262185 1.054000 3.030394
v 0.262185 0.025998 4.479394
v 0.000185 0.026000 0.409394
v 0.438185 0.815000 0.894394
v 0.328185 0.718000 0.108394
v 0.328185 0.960000 0.479394
v 0.262185 1.155000 2.226394
v -0.323815 0.960000 0.479394
v 0.000185 0.718000 0.108394
v 0.914185 0.378000 -0.176606
v 0.848185 0.202000 0.030394
v 0.000185 0.745000 0.542394
v 0.575185 0.882000 0.940394
v 0.875185 0.765000 0.940394
v 0.977185 0.624000 0.866394
v -1.303815 0.143000 0.241394
v 0.000185 0.202000 0.030394
v -0.846815 0.565000 2.585394
v -1.303815 0.026000 2.640394
v -0.510815 0.921000 2.276394
v -0.815815 0.804000 2.276394
v -0.975815 0.624000 0.866394
v -0.874815 0.765000 0.940394
v -0.573815 0.882000 0.940394
v -0.432815 0.815000 0.894394
v 1.305185 0.143000 0.241394
v 0.817185 0.804000 2.276394
v 0.512185 0.921000 2.276394
v 0.848185 0.565000 2.585394
v 0.524185 0.541998 3.343394
v 0.782185 0.025998 3.890394
v 1.305185 0.026000 2.640394
v 1.434185 0.026000 1.073394
v -1.432815 0.026000 1.073394
v -0.975815 0.542000 0.343394
v 0.977185 0.542000 0.343394
v 0.000185 1.206000 0.476394
vt 0.000000 0.000000
vt 0.000000 0.000000
vt 0.000000 0.000000
vt 0.000000 0.000000
vt 0.000000 0.000000
vt 0.457030 0.992190
vt 0.457030 0.917970
vt 0.367190 0.898440
vt 0.957030 0.992190
vt 0.871090 0.996090
vt 0.941410 0.828130
vt 0.054690 0.144530
vt 0.304690 0.289060
vt 0.082030 0.066410
vt 0.457030 0.640630
vt 0.445310 0.695310
vt 0.457030 0.765630
vt 0.917970 0.144530
vt 0.914060 0.136720
vt 0.917970 0.136720
vt 0.949220 0.136720
vt 0.949220 0.136720
vt 0.949220 0.144530
vt 0.097660 1.000000
vt 0.074220 1.000000
vt 0.085940 0.777340
vt 0.574220 0.433590
vt 0.554690 0.308590
vt 0.554690 0.367190
vt 0.542970 0.765630
vt 0.554690 0.695310
vt 0.542970 0.640630
vt 0.382810 0.386720
vt 0.496090 0.363280
vt 0.382810 0.363280
vt 0.585940 0.289060
vt 0.835940 0.144530
vt 0.808590 0.066410
vt 0.286483 0.677767
vt 0.312500 0.972660
vt 0.286483 0.677767
vt 0.015630 0.937500
vt 0.156250 0.937500
vt 0.156250 0.777340
vt 0.015630 0.777340
vt 0.019530 0.093750
vt 0.031250 0.015630
vt 0.035160 0.050780
vt 0.062500 0.054690
vt 0.617190 0.785160
vt 0.652340 0.429690
vt 0.609380 0.386720
vt 0.593750 0.750000
vt 0.445310 0.050780
vt 0.476560 0.050780
vt 0.445310 0.007810
vt 0.414060 0.050780
vt 0.996090 0.777340
vt 0.839840 0.984380
vt 0.628910 0.996090
vt 0.644530 0.777340
vt 0.355470 0.695310
vt 0.410160 0.816410
vt 0.187500 0.781250
vt 0.187500 0.976560
vt 0.320310 0.976560
vt 0.320310 0.781250
vt 0.156250 0.777340
vt 0.156250 0.937500
vt 0.015630 0.937500
vt 0.015630 0.777340
vt 0.089840 0.050780
vt 0.093750 0.015630
vt 0.105470 0.093750
vt 0.320310 0.976560
vt 0.187500 0.976560
vt 0.187500 0.781250
vt 0.320310 0.781250
vt 0.320310 0.679690
vt 0.320310 0.980470
vt 0.187500 0.980470
vt 0.187500 0.679690
vt 0.863280 0.984380
vt 0.628910 0.976560
vt 0.507810 0.773440
vt 0.898440 0.773440
vt 0.285160 0.289060
vt 0.445310 0.019530
vt 0.027340 0.019530
vt 0.445310 0.289060
vt 0.863280 0.019530
vt 0.605470 0.289060
vt 0.632810 0.898440
vt 0.542970 0.917970
vt 0.542970 0.992190
vt 0.585940 0.816410
vt 0.640630 0.695310
vt 0.414060 0.750000
vt 0.609380 0.359380
vt 0.140630 0.828130
vt 0.136720 0.789060
vt 0.136720 0.906250
vt 0.117190 0.968750
vt 0.031250 0.828130
vt 0.035160 0.789060
vt 0.035160 0.906250
vt 0.054690 0.968750
vt 0.390630 0.785160
vt 0.347660 0.433590
vt 0.160160 0.425780
vt 0.156250 0.394530
vt 0.179690 0.363280
vt 0.042970 0.371090
vt 0.000000 0.476560
vt 0.210940 0.765630
vt 0.058590 0.746090
vt 0.218750 0.761720
vt 0.195310 0.445310
vt 0.324220 0.761720
vt 0.300780 0.441410
vt 0.679690 0.761720
vt 0.699220 0.441410
vt 0.789060 0.761720
vt 0.804690 0.441410
vt 0.839840 0.421880
vt 0.800780 0.785160
vt 1.000000 0.472660
vt 0.957030 0.796880
vt 0.949220 0.367190
vt 0.835940 0.394530
vt 0.812500 0.363280
vt 0.570310 0.941410
vt 0.748040 0.724865
vt 0.427315 0.726910
vt 0.326422 0.727636
vt 0.363280 0.972660
vt 0.326422 0.727636
vt 0.427315 0.726910
vn 0.0000 0.0000 -1.0000
vn -0.3406 0.6379 0.6907
vn -0.3981 0.7676 0.5023
vn -0.6888 0.6256 0.3663
vn -0.5521 0.7982 0.2410
vn 0.2278 -0.7050 -0.6716
vn 0.2221 -0.0783 -0.9719
vn 0.0888 -0.7043 -0.7043
vn -0.6422 0.7664 0.0172
vn -0.7234 0.6499 0.2331
vn -0.5162 0.8302 0.2104
vn 0.5304 0.7244 0.4404
vn 0.7210 0.6526 0.2329
vn 0.5135 0.8039 0.3001
vn -0.0000 -1.0000 -0.0000
vn -0.0000 -0.9855 -0.1695
vn 0.6267 0.6962 -0.3501
vn 0.3870 0.7965 -0.4646
vn 0.5479 0.7925 -0.2679
vn 0.4108 0.9116 0.0145
vn -0.4670 0.8488 -0.2480
vn 0.0000 0.5409 -0.8411
vn -0.3423 0.7334 -0.5873
vn -0.3402 -0.2036 -0.9180
vn -0.2293 -0.7045 -0.6717
vn -0.0774 -0.5787 -0.8119
vn 0.0000 -0.9909 0.1345
vn 0.1492 0.8964 -0.4173
vn 0.5329 0.7929 -0.2955
vn 0.6533 0.7140 -0.2517
vn 0.2369 0.9280 -0.2874
vn -0.0981 -0.9218 -0.3750
vn 0.6203 0.7510 0.2262
vn 0.2369 0.9280 -0.2875
vn -0.0000 -0.3374 -0.9413
vn -0.6924 0.6805 0.2397
vn -0.7409 0.6466 0.1818
vn -0.6229 0.7488 0.2262
vn 0.0059 0.9944 0.1051
vn -0.6180 0.7389 0.2687
vn -0.6529 0.7143 -0.2520
vn -0.4915 0.8426 -0.2199
vn -0.0827 0.8491 -0.5217
vn -0.2396 0.9276 -0.2865
vn 0.0981 -0.9218 -0.3750
vn 0.5794 0.7848 0.2199
vn -0.1181 0.9838 0.1350
vn 0.6936 0.6794 0.2392
vn 0.2254 0.6610 0.7157
vn 0.5533 0.7971 0.2418
vn 0.6899 0.6241 0.3669
vn 0.7409 0.6466 0.1818
vn -0.2424 0.6577 -0.7132
vn 0.2821 0.7321 -0.6200
vn 0.0348 -0.9966 -0.0751
vn -0.0348 -0.9966 -0.0751
vn -0.6230 0.7488 0.2262
vn -0.6261 0.6964 -0.3507
vn -0.5471 0.8070 -0.2223
vn -0.5385 0.7828 -0.3120
vn -0.7573 0.6368 -0.1447
vn -0.7803 0.6245 0.0342
vn -0.0201 0.9613 -0.2747
vn -0.2779 0.9173 0.2852
vn 0.0163 0.9612 -0.2755
vn 0.2771 0.9176 0.2850
vn 0.7803 0.6245 0.0342
vn 0.7573 0.6368 -0.1448
vn 0.5479 0.8065 -0.2222
vn 0.5393 0.7822 -0.3119
vn 0.3870 0.7964 -0.4647
vn -1.0000 0.0018 0.0032
vn -1.0000 0.0029 0.0025
vn -1.0000 0.0013 0.0035
vn -1.0000 0.0006 0.0040
vn 1.0000 0.0006 0.0040
vn 1.0000 0.0013 0.0035
vn 1.0000 0.0018 0.0032
vn 1.0000 0.0029 0.0025
usemtl mesh0044mat_6e793914-f256-4244-a1db-76cb442ce676.006
s off
f 1/1/1 2/2/1 3/3/1 4/4/1 5/5/1
s 1
f 6/6/2 7/7/3 8/8/4
f 7/9/3 9/10/5 8/11/4
f 10/12/6 11/13/7 12/14/8
f 13/15/9 14/16/10 15/17/11
f 15/18/11 14/19/10 7/20/3
f 16/21/12 17/22/13 18/23/14
f 19/24/15 6/25/15 20/26/16
f 21/27/17 22/28/18 23/29/19
f 18/30/14 17/31/13 24/32/20
f 25/33/21 26/34/22 11/35/23
f 22/36/24 27/37/25 28/38/26
f 1/39/27 29/40/27 2/41/27
f 30/42/28 31/43/29 32/44/30
f 21/45/31 30/42/28 32/44/30
f 33/46/32 10/47/6 12/48/8
f 20/49/16 33/46/32 12/48/8
f 17/50/33 21/51/34 23/52/19
f 24/53/20 17/50/13 23/52/19
f 34/54/35 28/55/26 20/56/16
f 12/57/8 34/54/35 20/56/16
f 8/58/4 9/59/5 35/60/36
f 36/61/37 8/58/4 35/60/36
f 14/16/38 35/62/36 9/63/5
f 7/7/3 14/16/38 9/63/5
f 14/64/38 37/65/39 38/66/40
f 35/67/36 14/64/38 38/66/40
f 39/68/41 40/69/42 41/70/43
f 42/71/44 39/68/41 41/70/43
f 28/72/26 27/73/25 43/74/45
f 20/49/16 28/72/26 43/74/45
f 44/75/46 45/76/47 17/77/33
f 46/78/48 44/75/46 17/77/33
f 7/79/3 6/80/2 19/81/49
f 16/82/12 7/79/3 19/81/49
f 18/23/14 15/18/11 7/20/3
f 16/21/12 18/23/14 7/20/3
f 15/17/11 18/30/14 24/32/20
f 13/15/9 15/17/11 24/32/20
f 46/83/48 47/84/50 48/85/51
f 49/86/52 46/83/48 48/85/51
f 11/87/53 34/88/35 12/89/8
f 26/90/22 34/88/35 11/87/53
f 26/90/22 28/91/26 34/88/35
f 22/92/54 28/91/26 26/90/22
f 48/93/51 16/94/12 19/95/49
f 47/96/50 16/94/12 48/93/51
f 47/96/50 17/31/33 16/94/12
f 46/97/48 17/31/33 47/96/50
f 24/53/20 25/33/21 13/98/9
f 23/52/19 25/33/21 24/53/20
f 23/52/19 26/34/22 25/33/21
f 22/99/18 26/34/22 23/52/19
f 50/100/55 20/26/16 43/101/45
f 49/102/15 20/26/16 50/100/55
f 49/102/15 19/24/15 20/26/16
f 48/103/15 19/24/15 49/102/15
f 20/26/16 51/104/56 33/105/32
f 20/26/16 36/106/15 51/104/56
f 6/25/15 36/106/15 20/26/16
f 6/25/15 8/107/15 36/106/15
f 25/33/21 14/108/10 13/98/9
f 25/33/21 42/109/44 14/108/57
f 11/35/23 42/109/58 25/33/21
f 11/35/23 39/110/41 42/109/44
f 11/35/23 52/111/59 39/110/41
f 52/111/59 11/35/23 10/112/60
f 33/113/61 52/111/59 10/112/60
f 33/113/61 39/110/41 52/111/59
f 51/114/62 39/110/41 33/113/61
f 51/114/62 35/115/36 39/110/41
f 36/116/37 35/115/36 51/114/62
f 38/117/40 39/110/41 35/115/36
f 38/117/40 40/118/42 39/110/41
f 37/119/39 40/118/42 38/117/40
f 37/119/39 41/120/43 40/118/42
f 37/119/39 42/109/63 41/120/43
f 14/108/64 42/109/63 37/119/39
f 45/121/47 21/51/65 17/50/66
f 45/121/47 30/122/28 21/51/65
f 44/123/46 30/122/28 45/121/47
f 44/123/46 31/124/29 30/122/28
f 44/123/46 32/125/30 31/124/29
f 46/126/48 32/125/30 44/123/46
f 46/126/48 50/127/67 32/125/30
f 49/128/52 50/127/67 46/126/48
f 43/129/68 32/125/30 50/127/67
f 43/129/68 53/130/69 32/125/30
f 27/131/70 53/130/69 43/129/68
f 22/99/71 53/130/69 27/131/70
f 22/99/71 32/125/30 53/130/69
f 21/51/31 32/125/30 22/99/71
f 54/132/72 4/133/73 3/134/74
f 3/134/74 2/135/75 29/136/75 54/132/72
f 29/136/76 1/137/76 5/138/77 54/132/78
f 4/133/79 54/132/78 5/138/77
